# xmcd
#
# Track frame offsets: 
#        182
#        20145
#        30750
#        50835
#        67542
#        81572
#        96940
#        113920
#        132220
#        165825
#        177007
#        188525
#        202937
#        216062
#        241002
#        260647
#        279370
#
# Disc length: 3916 seconds
#
# Revision: 0
# Processed by: cddbd v1.5.1PL0 Copyright (c) Steve Scherf et al.
# Submitted via: ExactAudioCopy v0.95a5
#
DISCID=d90f4a11
DTITLE=Various Artist - El Samovar de Rasputin - Blues en Vivo
DYEAR=1994
DGENRE=Blues
TTITLE0=desastre
TTITLE1=killing floor
TTITLE2=life goes on
TTITLE3=virus criminal
TTITLE4=tal vez en diciembre
TTITLE5=estaño de bar
TTITLE6=little red rooster
TTITLE7=tengo un blues
TTITLE8=si estas cansado
TTITLE9=black rat
TTITLE10=dodge '73
TTITLE11=ella lo sabe
TTITLE12=double crossing time
TTITLE13=mi nena
TTITLE14=el momento de decir adios
TTITLE15=yupie love
TTITLE16=boggie thing
EXTD=
EXTT0=
EXTT1=
EXTT2=
EXTT3=
EXTT4=
EXTT5=
EXTT6=
EXTT7=
EXTT8=
EXTT9=
EXTT10=
EXTT11=
EXTT12=
EXTT13=
EXTT14=
EXTT15=
EXTT16=
PLAYORDER=
